<svg aria-hidden="true" style="position: absolute; width: 0; height: 0; overflow: hidden;" version="1.1" xmlns="http://www.w3.org/2000/svg" xmlns:xlink="http://www.w3.org/1999/xlink">
<defs>
<symbol id="icon-logo" viewBox="0 0 178 32">
<path d="M0 31.4v-31.4h13.412c2.408 0 4.424 0.332 6.047 0.997 1.633 0.664 2.858 1.595 3.675 2.79 0.827 1.196 1.241 2.581 1.241 4.155 0 1.196-0.257 2.264-0.77 3.204-0.513 0.93-1.22 1.702-2.12 2.315s-1.942 1.043-3.125 1.288v0.307c1.298 0.061 2.497 0.404 3.597 1.027 1.11 0.624 2 1.492 2.67 2.607 0.67 1.104 1.005 2.412 1.005 3.925 0 1.686-0.44 3.194-1.319 4.523-0.879 1.319-2.152 2.361-3.816 3.128-1.665 0.756-3.686 1.135-6.062 1.135h-14.433zM7.774 25.282h4.806c1.686 0 2.926-0.312 3.722-0.935 0.806-0.624 1.209-1.492 1.209-2.607 0-0.807-0.194-1.503-0.581-2.085-0.387-0.593-0.937-1.048-1.649-1.365-0.712-0.327-1.565-0.491-2.56-0.491h-4.947v7.482zM7.774 12.91h4.303c0.848 0 1.602-0.138 2.262-0.414s1.173-0.675 1.539-1.196c0.377-0.521 0.565-1.15 0.565-1.886 0-1.053-0.382-1.881-1.147-2.484s-1.796-0.905-3.094-0.905h-4.429v6.884z"></path>
<path d="M27.767 0h8.685l6.8 13.14h0.283l6.8-13.14h8.685l-11.763 20.913v10.487h-7.727v-10.487l-11.763-20.913z"></path>
<path d="M63.258 6.163v-6.163h27.186v6.163h-9.753v25.237h-7.664v-25.237h-9.769z"></path>
<path d="M94.241 31.4v-31.4h22.427v6.163h-14.652v6.439h13.507v6.179h-13.507v6.455h14.652v6.163h-22.427z"></path>
<path d="M121.537 31.4v-31.4h22.427v6.163h-14.652v6.439h13.507v6.179h-13.507v6.455h14.652v6.163h-22.427z"></path>
<path d="M156.701 0l5.874 9.92h0.251l0.252-0.42-6.376-9.5z"></path>
<path d="M162.575 9.92l-5.874-9.92h-8.764l9.722 15.7-9.973 15.7h8.858l6.031-10.027h0.251l6.031 10.027h8.921l-14.7-21.9-0.252 0.42h-0.251z"></path>
<path d="M169.934 0h7.844v7.85h-7.844v-7.85z"></path>
</symbol>
<symbol id="icon-day-night" viewBox="0 0 32 32">
<path fill="#f9f0e5" style="fill: var(--color3, #f9f0e5)" d="M32 16c0 8.837-7.163 16-16 16s-16-7.163-16-16c0-8.837 7.163-16 16-16s16 7.163 16 16z"></path>
<path fill="none" stroke="#15005b" style="stroke: var(--color2, #15005b)" stroke-linejoin="round" stroke-linecap="round" stroke-miterlimit="10" stroke-width="1.1355" d="M16 5.677v21.161"></path>
<path fill="none" stroke="#15005b" style="stroke: var(--color2, #15005b)" stroke-linejoin="round" stroke-linecap="round" stroke-miterlimit="10" stroke-width="1.1355" d="M16 21.956c-3.15 0-5.697-2.547-5.697-5.697s2.547-5.697 5.697-5.697"></path>
<path fill="none" stroke="#15005b" style="stroke: var(--color2, #15005b)" stroke-linejoin="round" stroke-linecap="round" stroke-miterlimit="10" stroke-width="1.1355" d="M8.52 8.779l1.725 1.725"></path>
<path fill="none" stroke="#15005b" style="stroke: var(--color2, #15005b)" stroke-linejoin="round" stroke-linecap="round" stroke-miterlimit="10" stroke-width="1.1355" d="M5.419 16.258h2.442"></path>
<path fill="none" stroke="#15005b" style="stroke: var(--color2, #15005b)" stroke-linejoin="round" stroke-linecap="round" stroke-miterlimit="10" stroke-width="1.1355" d="M8.52 23.738l1.725-1.725"></path>
<path fill="none" stroke="#15005b" style="stroke: var(--color2, #15005b)" stroke-linejoin="round" stroke-linecap="round" stroke-miterlimit="10" stroke-width="1.1355" d="M16 13.45c0.977-1.725 2.832-2.889 4.957-2.889 0.13 0 0.252 0.008 0.383 0.016-1.359 0.716-2.279 2.141-2.279 3.777 0 2.36 1.913 4.273 4.273 4.273 1.302 0 2.466-0.586 3.247-1.506-0.423 2.743-2.775 4.834-5.624 4.834-2.124 0-3.98-1.164-4.957-2.889"></path>
</symbol>
<symbol id="icon-no-extras" viewBox="0 0 32 32">
<path fill="#f9f0e5" style="fill: var(--color1, #f9f0e5)" d="M32 16c0 8.837-7.163 16-16 16s-16-7.163-16-16c0-8.837 7.163-16 16-16s16 7.163 16 16z"></path>
<path fill="#01005b" style="fill: var(--color3, #01005b)" d="M11.713 11.603c0-0.239 0.199-0.432 0.445-0.432h10.402c0.13 0 0.253 0.055 0.337 0.15s0.122 0.222 0.102 0.347l-0.444 2.831c-0.034 0.214-0.223 0.367-0.439 0.367-0.022 0-0.045-0.002-0.068-0.005-0.243-0.036-0.41-0.256-0.373-0.492l0.366-2.334h-9.884c-0.246 0-0.445-0.194-0.445-0.432zM15.091 18.971h-3.943l-1.644-9.321c-0.037-0.207-0.222-0.359-0.439-0.359h-2.427c-0.246 0-0.445 0.193-0.445 0.432s0.199 0.432 0.445 0.432h2.052l1.644 9.321c0.037 0.211 0.225 0.359 0.438 0.359 0.025-0 0.050-0.002 0.076-0.006 0.002-0 0.004-0.001 0.005-0.001 0.026 0.005 0.053 0.007 0.081 0.007h4.157c0.246 0 0.445-0.193 0.445-0.432s-0.199-0.432-0.445-0.432zM14.231 22.029v0.767c0 0.721-0.604 1.307-1.346 1.307s-1.346-0.587-1.346-1.307v-0.767c0-0.721 0.604-1.307 1.346-1.307s1.346 0.586 1.346 1.307zM13.341 22.029c0-0.244-0.205-0.443-0.456-0.443h-0c-0.251 0-0.456 0.199-0.456 0.443v0.767c0 0.244 0.205 0.443 0.456 0.443s0.456-0.199 0.456-0.443v-0.767zM25.745 17.998c-0.262 2.049-1.331 3.876-3.008 5.144-1.412 1.067-3.112 1.632-4.873 1.632-0.331 0-0.665-0.020-0.999-0.061-0.28-0.034-0.561-0.083-0.838-0.146-0.186-0.042-0.323-0.194-0.342-0.379-0.058-0.57-0.050-1.149 0.023-1.72 0.542-4.23 4.526-7.242 8.88-6.716 0.28 0.034 0.562 0.083 0.838 0.146 0.186 0.042 0.323 0.194 0.341 0.378 0.058 0.57 0.050 1.149-0.023 1.72zM24.907 16.677c-0.142-0.026-0.286-0.048-0.428-0.065-3.867-0.468-7.405 2.208-7.887 5.965-0.027 0.214-0.044 0.43-0.051 0.645l4.070-3.464c0.185-0.157 0.466-0.139 0.628 0.040s0.143 0.453-0.041 0.61l-4.071 3.465c1.822 0.183 3.614-0.316 5.064-1.412 1.49-1.127 2.439-2.749 2.672-4.569 0.052-0.403 0.067-0.81 0.045-1.214z"></path>
</symbol>
<symbol id="icon-comfort" viewBox="0 0 32 32">
<path fill="#f9f0e5" style="fill: var(--color1, #f9f0e5)" d="M32 16c0 8.837-7.163 16-16 16s-16-7.163-16-16c0-8.837 7.163-16 16-16s16 7.163 16 16z"></path>
<path fill="#01005b" style="fill: var(--color3, #01005b)" d="M9.578 12.697c1.403-1.36 2.51-2.435 5.517-0.517 1.444 0.921 2.609 1.269 3.578 1.268 1.698 0 2.799-1.066 3.75-1.988 0.163-0.16 0.265-0.386 0.283-0.63s-0.048-0.486-0.185-0.675c-0.067-0.093-0.15-0.17-0.243-0.226s-0.196-0.091-0.302-0.101-0.212 0.003-0.313 0.040c-0.101 0.037-0.194 0.096-0.274 0.174-1.402 1.362-2.51 2.437-5.517 0.517-3.973-2.532-5.834-0.728-7.328 0.723-0.163 0.161-0.265 0.387-0.283 0.63s0.048 0.485 0.186 0.675c0.067 0.093 0.15 0.169 0.243 0.225s0.196 0.090 0.302 0.101c0.105 0.010 0.212-0.003 0.312-0.040s0.194-0.096 0.274-0.174zM21.389 14.672c-1.402 1.36-2.51 2.437-5.517 0.517-3.973-2.534-5.834-0.729-7.328 0.721-0.163 0.161-0.265 0.387-0.283 0.63s0.048 0.486 0.186 0.675c0.067 0.093 0.149 0.17 0.243 0.226s0.196 0.090 0.302 0.101c0.105 0.011 0.212-0.003 0.313-0.039s0.194-0.096 0.274-0.174c1.403-1.361 2.51-2.436 5.517-0.519 1.444 0.923 2.609 1.269 3.578 1.269 1.698 0 2.799-1.066 3.75-1.99 0.163-0.16 0.265-0.386 0.283-0.629s-0.048-0.485-0.185-0.674c-0.067-0.093-0.15-0.17-0.243-0.226s-0.196-0.090-0.302-0.101c-0.106-0.010-0.212 0.003-0.313 0.040s-0.194 0.096-0.274 0.174zM21.389 19.301c-1.402 1.362-2.51 2.437-5.517 0.519-3.973-2.534-5.834-0.73-7.328 0.721-0.163 0.161-0.265 0.386-0.283 0.63s0.048 0.485 0.186 0.675c0.067 0.093 0.149 0.169 0.243 0.226s0.196 0.090 0.302 0.101 0.212-0.003 0.313-0.040c0.101-0.037 0.194-0.096 0.274-0.174 1.403-1.36 2.51-2.434 5.517-0.517 1.444 0.921 2.609 1.269 3.578 1.269 1.698 0 2.799-1.068 3.75-1.99 0.163-0.16 0.265-0.386 0.283-0.63s-0.048-0.486-0.185-0.675c-0.067-0.093-0.15-0.169-0.243-0.225s-0.196-0.090-0.302-0.101c-0.105-0.011-0.212 0.003-0.313 0.039s-0.194 0.096-0.275 0.174z"></path>
</symbol>
<symbol id="icon-as-seen2" viewBox="0 0 68 32">
<path d="M0 0h68.308v32h-68.308v-32z"></path>
</symbol>
<symbol id="icon-as-seen3" viewBox="0 0 164 32">
<path d="M0 0h163.623v32h-163.623v-32z"></path>
</symbol>
<symbol id="icon-as-seen4" viewBox="0 0 168 32">
<path d="M0 0h167.784v32h-167.784v-32z"></path>
</symbol>
<symbol id="icon-as-seen5" viewBox="0 0 106 32">
<path d="M0 0h105.931v32h-105.931v-32z"></path>
</symbol>
<symbol id="icon-slider-arrow-left" viewBox="0 0 17 32">
<path fill="none" stroke="#676869" style="stroke: var(--color4, #676869)" stroke-linejoin="round" stroke-linecap="square" stroke-miterlimit="4" stroke-width="3.3684" d="M14.004 28.48l-12.32-12.316 12.32-12.318"></path>
</symbol>
<symbol id="icon-slider-arrow-right" viewBox="0 0 19 32">
<path fill="none" stroke="#676869" style="stroke: var(--color4, #676869)" stroke-linejoin="round" stroke-linecap="square" stroke-miterlimit="4" stroke-width="3.3684" d="M3.86 28.48l12.32-12.316-12.32-12.318"></path>
</symbol>
<symbol id="icon-ship" viewBox="0 0 45 32">
<path fill="none" stroke="#01005b" style="stroke: var(--color3, #01005b)" stroke-linejoin="miter" stroke-linecap="butt" stroke-miterlimit="4" stroke-width="1.3061" d="M5.878 9.469h7.51M5.878 18.612h7.51M0 14.041h13.388"></path>
<path fill="#01005b" style="fill: var(--color3, #01005b)" d="M31.973 22.973h-8.809v-1.333h7.476v-15.627h-16.572v15.627h2.785v1.333h-4.118v-18.294h19.238v18.294z"></path>
<path fill="#01005b" style="fill: var(--color3, #01005b)" d="M44.735 22.973h-4.217v-1.333h2.884v-6.082l-5.835-6.587h-5.594v12.669h2.234v1.333h-3.568v-15.336h7.527l6.568 7.415v7.921z"></path>
<path fill="#01005b" style="fill: var(--color3, #01005b)" d="M37.403 27.32c-2.194 0-3.978-1.785-3.978-3.978s1.785-3.979 3.978-3.979c2.194 0 3.979 1.785 3.979 3.979s-1.785 3.978-3.979 3.978zM37.403 20.697c-1.458 0-2.645 1.187-2.645 2.645s1.187 2.645 2.645 2.645c1.459 0 2.646-1.186 2.646-2.645s-1.187-2.645-2.646-2.645z"></path>
<path fill="#01005b" style="fill: var(--color3, #01005b)" d="M20.066 27.32c-2.194 0-3.979-1.785-3.979-3.978s1.785-3.979 3.979-3.979 3.978 1.785 3.978 3.979c0 2.194-1.784 3.978-3.978 3.978zM20.066 20.697c-1.458 0-2.645 1.187-2.645 2.645s1.187 2.645 2.645 2.645c1.458 0 2.645-1.186 2.645-2.645s-1.187-2.645-2.645-2.645z"></path>
</symbol>
<symbol id="icon-leaf" viewBox="0 0 32 32">
<path fill="#f9f0e5" style="fill: var(--color1, #f9f0e5)" d="M32 16c0 8.837-7.163 16-16 16s-16-7.163-16-16c0-8.837 7.163-16 16-16s16 7.163 16 16z"></path>
<path fill="#01005b" style="fill: var(--color3, #01005b)" d="M24.135 22.718c-0.303-0.265-0.764-0.236-1.031 0.064-1.225 1.377-2.588 0.876-3.222 0.515 1.308-8.244-1.651-9.778-5.719-11.888-1.712-0.887-3.651-1.896-5.611-3.609-0.191-0.168-0.454-0.222-0.696-0.15s-0.429 0.265-0.494 0.508c-1.063 4.013-0.436 7.915 1.773 10.984 2.17 3.015 5.604 4.857 9.68 5.204 0.58 0.404 1.478 0.798 2.472 0.798 0.948 0 1.982-0.358 2.912-1.402 0.263-0.3 0.238-0.758-0.065-1.023zM10.325 18.297c-1.748-2.425-2.371-5.454-1.802-8.637 1.755 1.37 3.445 2.246 4.963 3.033 3.712 1.924 5.874 3.047 5.103 9.306l-1.885-2.282 0.396-2.339c0.065-0.393-0.202-0.769-0.602-0.833-0.396-0.064-0.775 0.2-0.84 0.594l-0.184 1.091-2.537-3.072-1.42-2.139c-0.22-0.336-0.674-0.429-1.013-0.207-0.335 0.218-0.429 0.669-0.209 1.001l1.438 2.171c0.014 0.021 0.029 0.043 0.047 0.061l0.735 0.891-0.53 0.007c-0.404 0.007-0.724 0.336-0.721 0.733 0.007 0.397 0.332 0.715 0.732 0.715 0.004 0 0.007 0 0.011 0l1.694-0.025 3.539 4.288c-2.89-0.608-5.305-2.117-6.916-4.356z"></path>
</symbol>
<symbol id="icon-cloud" viewBox="0 0 32 32">
<path fill="#f9f0e5" style="fill: var(--color1, #f9f0e5)" d="M32 16c0 8.837-7.163 16-16 16s-16-7.163-16-16c0-8.837 7.163-16 16-16s16 7.163 16 16z"></path>
<path fill="#01005b" style="fill: var(--color3, #01005b)" d="M20.802 12.155h-0.1c-0.851-2.255-2.94-3.775-5.303-3.775-3.057 0-5.56 2.536-5.697 5.707-2.037 0.304-3.608 2.144-3.608 4.363 0 2.43 1.885 4.407 4.202 4.407h10.505c2.814 0 5.102-2.4 5.102-5.351s-2.289-5.351-5.102-5.351zM20.802 20.969h-10.505c-1.324 0-2.401-1.13-2.401-2.518s1.077-2.518 2.401-2.518h0.3c0.497 0 0.9-0.423 0.9-0.944v-0.627c0-2.256 1.75-4.092 3.902-4.092 1.781 0 3.334 1.261 3.778 3.066 0.103 0.417 0.461 0.709 0.872 0.709h0.752c1.82 0 3.302 1.553 3.302 3.462s-1.481 3.462-3.302 3.462z"></path>
</symbol>
<symbol id="icon-co2" viewBox="0 0 32 32">
<path fill="#e2e2e2" style="fill: var(--color5, #e2e2e2)" d="M32 16c0 8.837-7.163 16-16 16s-16-7.163-16-16c0-8.837 7.163-16 16-16s16 7.163 16 16z"></path>
<path fill="#6160d2" style="fill: var(--color6, #6160d2)" d="M24.303 14.494c0.128-0.443 0.168-0.9 0.168-1.35 0-3.047-2.478-5.525-5.525-5.525-1.202 0-2.345 0.38-3.305 1.098-0.928 0.694-1.627 1.682-1.97 2.784-0.011 0.036-0.050 0.12-0.208 0.094-0.014-0.002-0.029-0.002-0.043-0.003-0.052-0.003-0.108-0.006-0.166-0.006-1.807 0-3.419 1.168-4.037 2.916-0.009 0.026-0.037 0.087-0.112 0.073-0.008-0.001-0.015-0.003-0.023-0.005-0.274-0.055-0.555-0.083-0.835-0.083-2.345 0-4.253 1.908-4.253 4.253s1.908 4.253 4.253 4.253h14.834c2.345 0 4.253-1.908 4.253-4.253 0-1.839-1.204-3.484-2.944-4.047-0.043-0.014-0.133-0.043-0.087-0.2zM23.080 22.203h-14.834c-1.909 0-3.462-1.553-3.462-3.462s1.553-3.462 3.462-3.462c0.234 0 0.469 0.024 0.698 0.071 0.075 0.015 0.15 0.023 0.223 0.023 0.37 0 0.659-0.203 0.772-0.542 0.489-1.467 1.82-2.453 3.313-2.453 0.048 0 0.101 0.004 0.156 0.007 0.061 0.004 0.123 0.008 0.191 0.009l0.014 0c0.458 0 0.73-0.211 0.807-0.627 0.002-0.012 0.004-0.023 0.006-0.030 0.619-1.989 2.435-3.325 4.52-3.325 2.61 0 4.734 2.124 4.734 4.734 0 0.448-0.066 0.901-0.195 1.347-0.063 0.217-0.049 0.41 0.043 0.574 0.136 0.243 0.379 0.311 0.497 0.344l0.018 0.005c1.473 0.425 2.501 1.792 2.501 3.326-0 1.909-1.553 3.462-3.462 3.462z"></path>
<path fill="#6160d2" style="fill: var(--color6, #6160d2)" d="M13.981 15.514c-0.227-0.073-0.49-0.113-0.741-0.113-1.191 0-2.023 0.823-2.023 2.001 0 1.153 0.757 1.927 1.883 1.927 0.449 0 0.775-0.097 0.929-0.155 0.053-0.020 0.193-0.072 0.173-0.29l-0.054-0.241c-0.024-0.111-0.098-0.178-0.197-0.178-0.043 0-0.082 0.013-0.108 0.023-0.128 0.049-0.332 0.114-0.625 0.114-0.678 0-1.133-0.494-1.133-1.229 0-0.756 0.454-1.244 1.155-1.244 0.222 0 0.417 0.033 0.58 0.098l0.008 0.003c0.026 0.011 0.065 0.027 0.11 0.027 0.054 0 0.151-0.023 0.197-0.178l0.073-0.247 0.003-0.012c0.023-0.133-0.067-0.252-0.23-0.305z"></path>
<path fill="#6160d2" style="fill: var(--color6, #6160d2)" d="M16.562 15.385c-1.104 0-1.875 0.823-1.875 2.001 0 1.143 0.747 1.942 1.816 1.942 0.907 0 1.883-0.626 1.883-2.001 0-1.143-0.75-1.942-1.824-1.942zM16.532 18.63c-0.567 0-0.979-0.532-0.979-1.266 0-0.638 0.307-1.281 0.993-1.281 0.762 0 0.964 0.828 0.964 1.266-0 0.742-0.412 1.281-0.979 1.281z"></path>
<path fill="#6160d2" style="fill: var(--color6, #6160d2)" d="M21.224 18.693h-0.781c-0.139 0-0.070-0.067-0.036-0.101 0.611-0.597 1.064-1.122 1.064-1.769 0-0.557-0.362-1.119-1.169-1.119-0.316 0-0.621 0.089-0.881 0.257-0.162 0.105-0.223 0.259-0.157 0.393l0.065 0.145 0.005 0.009c0.039 0.073 0.11 0.116 0.191 0.116 0.084 0 0.155-0.046 0.202-0.076 0.16-0.104 0.323-0.157 0.483-0.157 0.335 0 0.497 0.159 0.497 0.486-0.004 0.426-0.351 0.825-1.178 1.612-0.039 0.034-0.267 0.231-0.369 0.36-0.053 0.067-0.051 0.152-0.050 0.227l0 0.030c0 0.18 0.154 0.274 0.306 0.274h1.803c0.012 0.001 0.028 0.003 0.048 0.003 0.196 0 0.284-0.125 0.284-0.25v-0.158c0-0.183-0.165-0.28-0.329-0.282z"></path>
</symbol>
<symbol id="icon-h2o" viewBox="0 0 32 32">
<path fill="#e2e2e2" style="fill: var(--color5, #e2e2e2)" d="M32 16c0 8.837-7.163 16-16 16s-16-7.163-16-16c0-8.837 7.163-16 16-16s16 7.163 16 16z"></path>
<path fill="#6160d2" style="fill: var(--color6, #6160d2)" d="M16.394 4.042c-0.148-0.15-0.347-0.235-0.561-0.233-0.21 0.001-0.412 0.086-0.559 0.236-0.327 0.334-8.006 8.256-8.006 14.816 0 4.724 3.843 8.568 8.568 8.568s8.567-3.843 8.567-8.568c0-6.666-7.682-14.49-8.009-14.82zM15.835 25.857c-3.857 0-6.996-3.138-6.996-6.995 0-4.958 5.25-11.18 6.999-13.115 1.751 1.917 6.992 8.077 6.992 13.115-0 3.857-3.138 6.995-6.996 6.995z"></path>
<path fill="#6160d2" style="fill: var(--color6, #6160d2)" d="M13.295 16.339c-0.152 0-0.283 0.056-0.378 0.163-0.093 0.103-0.14 0.25-0.14 0.437v0.874h-1.26v-0.874c0-0.189-0.049-0.337-0.144-0.44-0.097-0.104-0.229-0.159-0.381-0.159-0.156 0-0.288 0.057-0.382 0.164-0.090 0.103-0.136 0.249-0.136 0.435v2.837c0 0.186 0.046 0.333 0.137 0.437 0.095 0.108 0.227 0.165 0.381 0.165 0.151 0 0.282-0.055 0.38-0.16 0.097-0.103 0.146-0.252 0.146-0.441v-1.054h1.26v1.054c0 0.186 0.046 0.333 0.137 0.437 0.095 0.108 0.227 0.165 0.381 0.165 0.151 0 0.282-0.055 0.38-0.16 0.097-0.103 0.146-0.252 0.146-0.441v-2.837c0-0.189-0.049-0.337-0.144-0.44-0.097-0.104-0.229-0.159-0.381-0.159z"></path>
<path fill="#6160d2" style="fill: var(--color6, #6160d2)" d="M16.571 21.72c-0.076-0.059-0.178-0.089-0.304-0.089h-0.562c0.050-0.045 0.114-0.101 0.196-0.168 0.179-0.146 0.303-0.251 0.38-0.32 0.086-0.077 0.169-0.182 0.249-0.313 0.086-0.142 0.13-0.302 0.13-0.475 0-0.112-0.021-0.221-0.063-0.325s-0.101-0.196-0.176-0.276c-0.075-0.079-0.164-0.143-0.265-0.189-0.145-0.065-0.32-0.097-0.519-0.097-0.167 0-0.317 0.026-0.444 0.076-0.129 0.051-0.239 0.121-0.325 0.206s-0.152 0.183-0.196 0.289c-0.044 0.106-0.066 0.211-0.066 0.311 0 0.136 0.056 0.221 0.104 0.268 0.068 0.068 0.156 0.104 0.256 0.104 0.144 0 0.227-0.065 0.273-0.12 0.046-0.057 0.085-0.131 0.119-0.227 0.030-0.087 0.042-0.109 0.042-0.109h-0c0.058-0.089 0.129-0.129 0.228-0.129 0.046 0 0.088 0.010 0.126 0.030 0.036 0.019 0.064 0.045 0.084 0.080s0.031 0.073 0.031 0.119c0 0.046-0.011 0.093-0.035 0.144-0.026 0.056-0.065 0.113-0.117 0.168-0.056 0.060-0.128 0.121-0.211 0.18-0.061 0.041-0.154 0.12-0.286 0.241-0.127 0.116-0.27 0.257-0.427 0.421-0.050 0.053-0.093 0.12-0.132 0.206-0.041 0.091-0.061 0.166-0.061 0.232 0 0.107 0.042 0.204 0.12 0.282s0.185 0.118 0.315 0.118h1.284c0.121 0 0.217-0.036 0.285-0.108 0.066-0.069 0.1-0.156 0.1-0.254-0-0.113-0.046-0.208-0.132-0.276z"></path>
<path fill="#6160d2" style="fill: var(--color6, #6160d2)" d="M20.727 17.3c-0.151-0.307-0.377-0.547-0.672-0.713-0.29-0.164-0.64-0.248-1.039-0.248-0.294 0-0.561 0.047-0.795 0.14-0.237 0.094-0.441 0.233-0.607 0.411-0.165 0.178-0.292 0.395-0.379 0.645-0.085 0.246-0.128 0.52-0.128 0.813 0 0.286 0.041 0.556 0.122 0.803 0.083 0.253 0.207 0.472 0.37 0.653 0.164 0.182 0.371 0.325 0.615 0.425 0.241 0.098 0.515 0.148 0.816 0.148 0.302 0 0.576-0.048 0.813-0.144 0.241-0.097 0.447-0.24 0.613-0.424 0.165-0.183 0.29-0.4 0.372-0.648 0.080-0.243 0.121-0.515 0.121-0.808-0-0.399-0.075-0.753-0.223-1.053zM19.772 19.001c-0.080 0.168-0.182 0.287-0.312 0.365-0.133 0.079-0.275 0.118-0.434 0.118-0.123 0-0.237-0.023-0.338-0.068-0.1-0.044-0.191-0.113-0.269-0.203-0.080-0.092-0.143-0.211-0.187-0.355-0.047-0.149-0.070-0.32-0.070-0.508 0-0.186 0.024-0.355 0.070-0.502 0.045-0.142 0.106-0.259 0.181-0.347s0.161-0.152 0.263-0.198c0.103-0.046 0.218-0.069 0.34-0.069 0.176 0 0.327 0.041 0.46 0.125 0.132 0.083 0.232 0.203 0.304 0.369 0.076 0.172 0.114 0.382 0.114 0.622 0 0.26-0.042 0.48-0.124 0.652z"></path>
</symbol>
<symbol id="icon-clock" viewBox="0 0 32 32">
<path fill="#1fad40" style="fill: var(--color7, #1fad40)" d="M11.2 8h3.2v8h8v3.2h-11.2v-11.2z"></path>
<path fill="#1fad40" style="fill: var(--color7, #1fad40)" d="M32 16c0-8.837-7.164-16-16-16s-16 7.163-16 16c0 8.836 7.163 16 16 16s16-7.164 16-16zM28.8 16c0 7.069-5.731 12.8-12.8 12.8s-12.8-5.731-12.8-12.8c0-7.069 5.731-12.8 12.8-12.8s12.8 5.731 12.8 12.8z"></path>
</symbol>
<symbol id="icon-btn-arrow" viewBox="0 0 74 32">
<path fill="#fff" style="fill: var(--color8, #fff)" d="M57.943 32l15.657-16-15.657-16-4.704 4.807 7.627 7.794h-60.866v6.798h60.866l-7.627 7.794 4.704 4.807z"></path>
</symbol>
<symbol id="icon-stars" viewBox="0 0 192 32">
<path fill="#ffb801" style="fill: var(--color9, #ffb801)" d="M32.429 11.775c-0.055-0.169-0.156-0.319-0.292-0.434s-0.301-0.189-0.477-0.214l-10.067-1.463-4.503-9.131c-0.079-0.159-0.2-0.293-0.351-0.387s-0.325-0.143-0.502-0.143c-0.177 0-0.351 0.050-0.502 0.143s-0.272 0.228-0.351 0.387l-4.503 9.124-10.067 1.463c-0.175 0.026-0.34 0.1-0.476 0.214s-0.236 0.264-0.291 0.433c-0.055 0.169-0.061 0.349-0.019 0.522s0.132 0.329 0.259 0.453l7.284 7.101-1.719 10.028c-0.029 0.174-0.009 0.353 0.058 0.516s0.178 0.305 0.32 0.409c0.143 0.104 0.311 0.166 0.487 0.18s0.352-0.022 0.509-0.103l9.012-4.729 9.005 4.734c0.157 0.081 0.334 0.116 0.51 0.103s0.345-0.076 0.488-0.18 0.254-0.246 0.32-0.41c0.067-0.164 0.087-0.343 0.057-0.517l-1.719-10.028 7.286-7.101c0.127-0.123 0.217-0.279 0.26-0.451s0.037-0.352-0.016-0.52z"></path>
<path fill="#ffb801" style="fill: var(--color9, #ffb801)" d="M72.31 11.773c-0.055-0.169-0.156-0.319-0.292-0.434s-0.301-0.189-0.477-0.214l-10.067-1.463-4.503-9.131c-0.079-0.159-0.2-0.293-0.351-0.387s-0.325-0.143-0.502-0.143c-0.177 0-0.351 0.050-0.502 0.143s-0.272 0.228-0.351 0.387l-4.503 9.124-10.067 1.463c-0.175 0.026-0.34 0.1-0.476 0.214s-0.236 0.264-0.291 0.433c-0.055 0.169-0.061 0.349-0.019 0.522s0.132 0.329 0.259 0.453l7.284 7.101-1.719 10.028c-0.029 0.174-0.009 0.353 0.058 0.516s0.178 0.305 0.32 0.409c0.143 0.104 0.311 0.166 0.487 0.18s0.352-0.022 0.509-0.103l9.012-4.729 9.005 4.734c0.157 0.081 0.333 0.116 0.51 0.103s0.345-0.076 0.488-0.18c0.142-0.104 0.253-0.246 0.32-0.41s0.087-0.343 0.058-0.517l-1.719-10.028 7.286-7.101c0.127-0.123 0.217-0.279 0.26-0.451s0.037-0.352-0.016-0.52z"></path>
<path fill="#ffb801" style="fill: var(--color9, #ffb801)" d="M112.192 11.772c-0.055-0.169-0.156-0.319-0.292-0.434s-0.301-0.189-0.477-0.214l-10.067-1.463-4.503-9.131c-0.079-0.159-0.2-0.293-0.351-0.387s-0.325-0.143-0.502-0.143c-0.177 0-0.351 0.050-0.502 0.143s-0.272 0.228-0.351 0.387l-4.503 9.124-10.067 1.463c-0.176 0.026-0.34 0.1-0.476 0.215s-0.236 0.264-0.291 0.433c-0.055 0.169-0.062 0.349-0.019 0.522s0.132 0.329 0.259 0.453l7.284 7.101-1.719 10.028c-0.029 0.174-0.009 0.353 0.058 0.516s0.178 0.305 0.32 0.409c0.143 0.104 0.311 0.166 0.487 0.18s0.352-0.022 0.509-0.103l9.012-4.729 9.005 4.734c0.157 0.081 0.333 0.116 0.509 0.103s0.345-0.076 0.488-0.18c0.143-0.104 0.254-0.246 0.32-0.41s0.087-0.343 0.058-0.517l-1.719-10.028 7.286-7.101c0.127-0.123 0.217-0.279 0.26-0.451s0.037-0.352-0.016-0.52z"></path>
<path fill="#ffb801" style="fill: var(--color9, #ffb801)" d="M152.074 11.772c-0.055-0.169-0.156-0.319-0.292-0.434s-0.301-0.189-0.477-0.214l-10.067-1.463-4.503-9.131c-0.079-0.159-0.201-0.293-0.351-0.387s-0.325-0.143-0.502-0.143c-0.178 0-0.352 0.050-0.502 0.143s-0.272 0.228-0.351 0.387l-4.503 9.124-10.067 1.463c-0.175 0.026-0.34 0.1-0.476 0.215s-0.236 0.264-0.291 0.433c-0.055 0.169-0.061 0.349-0.019 0.522s0.132 0.329 0.259 0.453l7.284 7.101-1.719 10.028c-0.029 0.174-0.009 0.353 0.058 0.516s0.178 0.305 0.32 0.409c0.143 0.104 0.311 0.166 0.487 0.18s0.352-0.022 0.509-0.103l9.012-4.729 9.005 4.734c0.157 0.081 0.333 0.116 0.51 0.103s0.345-0.076 0.488-0.18c0.143-0.104 0.253-0.246 0.32-0.41s0.086-0.343 0.057-0.517l-1.719-10.028 7.286-7.101c0.127-0.123 0.217-0.279 0.26-0.451s0.037-0.352-0.016-0.52z"></path>
<path fill="#ffb801" style="fill: var(--color9, #ffb801)" d="M191.954 11.772c-0.055-0.169-0.156-0.319-0.292-0.434s-0.301-0.189-0.477-0.214l-10.067-1.463-4.503-9.131c-0.079-0.159-0.2-0.293-0.351-0.387s-0.325-0.143-0.502-0.143c-0.177 0-0.351 0.050-0.502 0.143s-0.272 0.228-0.351 0.387l-4.503 9.124-10.067 1.463c-0.176 0.026-0.34 0.1-0.476 0.215s-0.236 0.264-0.291 0.433c-0.055 0.169-0.062 0.349-0.020 0.522s0.132 0.329 0.259 0.453l7.284 7.101-1.719 10.028c-0.029 0.174-0.009 0.353 0.058 0.516s0.178 0.305 0.32 0.409c0.143 0.104 0.311 0.166 0.487 0.18s0.352-0.022 0.509-0.103l9.012-4.729 9.005 4.734c0.157 0.081 0.333 0.116 0.51 0.103s0.345-0.076 0.488-0.18c0.142-0.104 0.253-0.246 0.32-0.41s0.087-0.343 0.058-0.517l-1.719-10.028 7.286-7.101c0.127-0.123 0.217-0.279 0.26-0.451s0.037-0.352-0.016-0.52z"></path>
</symbol>
<symbol id="icon-as-seen1" viewBox="0 0 259 32">
<path d="M0 0h258.909v32h-258.909v-32z"></path>
</symbol>
<symbol id="icon-no-extras-how-order" viewBox="0 0 32 32">
<path fill="#01005b" style="fill: var(--color1, #01005b)" d="M9.006 6.88c0-0.401 0.325-0.726 0.726-0.726h16.971c0.212 0 0.413 0.092 0.551 0.253s0.199 0.373 0.167 0.583l-0.725 4.755c-0.055 0.359-0.364 0.617-0.717 0.617-0.036 0-0.073-0.003-0.11-0.008-0.396-0.060-0.669-0.431-0.608-0.827l0.598-3.92h-16.126c-0.401 0-0.726-0.325-0.726-0.726zM14.517 19.256h-6.434l-2.682-15.657c-0.060-0.349-0.362-0.603-0.716-0.603h-3.96c-0.401 0-0.726 0.325-0.726 0.726s0.325 0.726 0.726 0.726h3.348l2.682 15.657c0.061 0.354 0.367 0.603 0.715 0.603 0.041-0 0.082-0.003 0.123-0.011 0.003-0.001 0.006-0.001 0.009-0.002 0.043 0.008 0.087 0.012 0.132 0.012h6.783c0.401 0 0.726-0.325 0.726-0.726s-0.325-0.726-0.726-0.726zM13.114 24.393v1.288c0 1.211-0.985 2.196-2.196 2.196s-2.196-0.985-2.196-2.196v-1.288c0-1.211 0.985-2.196 2.196-2.196s2.196 0.985 2.196 2.196zM11.662 24.393c0-0.41-0.334-0.744-0.744-0.744h-0c-0.41 0-0.744 0.334-0.744 0.744v1.288c0 0.41 0.334 0.744 0.744 0.744s0.744-0.334 0.744-0.744v-1.288zM31.9 17.622c-0.428 3.441-2.171 6.51-4.908 8.641-2.303 1.793-5.078 2.741-7.95 2.741-0.541 0-1.085-0.034-1.63-0.102-0.456-0.057-0.916-0.139-1.367-0.245-0.303-0.071-0.527-0.326-0.557-0.636-0.094-0.958-0.081-1.93 0.038-2.889 0.885-7.105 7.384-12.165 14.489-11.28 0.457 0.057 0.916 0.139 1.367 0.245 0.303 0.071 0.527 0.326 0.557 0.636 0.094 0.957 0.082 1.929-0.038 2.889zM30.532 15.403c-0.232-0.043-0.466-0.080-0.699-0.109-6.309-0.785-12.083 3.709-12.868 10.019-0.045 0.36-0.073 0.722-0.084 1.084l6.641-5.819c0.301-0.264 0.76-0.234 1.024 0.068s0.234 0.76-0.068 1.024l-6.643 5.819c2.972 0.307 5.897-0.531 8.262-2.373 2.43-1.892 3.979-4.618 4.359-7.675 0.085-0.677 0.109-1.361 0.074-2.040z"></path>
</symbol>
<symbol id="icon-day-night-how-order" viewBox="0 0 32 32">
<path fill="none" stroke="#15005b" style="stroke: var(--color2, #15005b)" stroke-linejoin="round" stroke-linecap="round" stroke-miterlimit="10" stroke-width="1.0667" d="M16 3v26"></path>
<path fill="none" stroke="#15005b" style="stroke: var(--color2, #15005b)" stroke-linejoin="round" stroke-linecap="round" stroke-miterlimit="10" stroke-width="1.0667" d="M16 23c-3.87 0-7-3.13-7-7s3.13-7 7-7"></path>
<path fill="none" stroke="#15005b" style="stroke: var(--color2, #15005b)" stroke-linejoin="round" stroke-linecap="round" stroke-miterlimit="10" stroke-width="1.0667" d="M6.81 6.81l2.12 2.12"></path>
<path fill="none" stroke="#15005b" style="stroke: var(--color2, #15005b)" stroke-linejoin="round" stroke-linecap="round" stroke-miterlimit="10" stroke-width="1.0667" d="M3 16h3"></path>
<path fill="none" stroke="#15005b" style="stroke: var(--color2, #15005b)" stroke-linejoin="round" stroke-linecap="round" stroke-miterlimit="10" stroke-width="1.0667" d="M6.81 25.19l2.12-2.12"></path>
<path fill="none" stroke="#15005b" style="stroke: var(--color2, #15005b)" stroke-linejoin="round" stroke-linecap="round" stroke-miterlimit="10" stroke-width="1.0667" d="M16 12.55c1.2-2.12 3.48-3.55 6.090-3.55 0.16 0 0.31 0.010 0.47 0.020-1.67 0.88-2.8 2.63-2.8 4.64 0 2.9 2.35 5.25 5.25 5.25 1.6 0 3.030-0.72 3.99-1.85-0.52 3.37-3.41 5.94-6.91 5.94-2.61 0-4.89-1.43-6.090-3.55"></path>
</symbol>
<symbol id="icon-star1" viewBox="0 0 35 32">
<path fill="#ffb801" style="fill: var(--color8, #ffb801)" d="M35.154 11.772c-0.055-0.169-0.156-0.319-0.292-0.434s-0.301-0.189-0.477-0.214l-10.067-1.463-4.503-9.131c-0.079-0.159-0.2-0.293-0.351-0.387s-0.325-0.143-0.502-0.143-0.351 0.050-0.502 0.143c-0.151 0.094-0.272 0.228-0.351 0.387l-4.503 9.124-10.067 1.463c-0.175 0.026-0.34 0.1-0.476 0.215s-0.236 0.264-0.291 0.433c-0.055 0.169-0.062 0.349-0.019 0.522s0.132 0.329 0.259 0.453l7.284 7.101-1.719 10.028c-0.029 0.174-0.009 0.353 0.058 0.516s0.178 0.305 0.32 0.409c0.143 0.104 0.311 0.166 0.487 0.18s0.352-0.022 0.509-0.103l9.012-4.729 9.005 4.734c0.157 0.081 0.334 0.116 0.51 0.103s0.345-0.076 0.488-0.18c0.143-0.104 0.254-0.246 0.32-0.41s0.087-0.343 0.057-0.517l-1.719-10.028 7.286-7.101c0.127-0.123 0.217-0.279 0.26-0.451s0.037-0.352-0.016-0.52z"></path>
</symbol>
</defs>
</svg>
